HIERARCHY
ROOT Hips
{
	OFFSET -0.001795 -0.223333 0.028219
	CHANNELS 6 Xposition Yposition Zposition Zrotation Yrotation Xrotation 
	JOINT LeftUpLeg
	{
		OFFSET 0.069520 -0.091406 -0.006815
		CHANNELS 3 Zrotation Yrotation Xrotation
		JOINT LeftLeg
		{
			OFFSET 0.034277 -0.375199 -0.004496
			CHANNELS 3 Zrotation Yrotation Xrotation
			JOINT LeftFoot
			{
				OFFSET -0.013596 -0.397961 -0.043693
				CHANNELS 3 Zrotation Yrotation Xrotation
				JOINT LeftToe
				{
					OFFSET 0.026358 -0.055791 0.119288
					CHANNELS 3 Zrotation Yrotation Xrotation
					End Site
					{
						OFFSET 0.000000 0.000000 0.000000
					}
				}
			}
		}
	}
	JOINT RightUpLeg
	{
		OFFSET -0.067670 -0.090522 -0.004320
		CHANNELS 3 Zrotation Yrotation Xrotation
		JOINT RightLeg
		{
			OFFSET -0.038290 -0.382569 -0.008850
			CHANNELS 3 Zrotation Yrotation Xrotation
			JOINT RightFoot
			{
				OFFSET 0.015774 -0.398415 -0.042312
				CHANNELS 3 Zrotation Yrotation Xrotation
				JOINT RightToe
				{
					OFFSET -0.025372 -0.048144 0.123348
					CHANNELS 3 Zrotation Yrotation Xrotation
					End Site
					{
						OFFSET 0.000000 0.000000 0.000000
					}
				}
			}
		}
	}
	JOINT Spine
	{
		OFFSET -0.002533 0.108963 -0.026696
		CHANNELS 3 Zrotation Yrotation Xrotation
		JOINT Spine1
		{
			OFFSET 0.005487 0.135180 0.001092
			CHANNELS 3 Zrotation Yrotation Xrotation
			JOINT Spine2
			{
				OFFSET 0.001457 0.052922 0.025425
				CHANNELS 3 Zrotation Yrotation Xrotation
				JOINT Neck
				{
					OFFSET -0.002778 0.213870 -0.042857
					CHANNELS 3 Zrotation Yrotation Xrotation
					JOINT Head
					{
						OFFSET 0.005152 0.064970 0.051349
						CHANNELS 3 Zrotation Yrotation Xrotation
						End Site
						{
							OFFSET 0.000000 0.000000 0.000000
						}
					}
				}
				JOINT LeftShoulder
				{
					OFFSET 0.078845 0.121749 -0.034090
					CHANNELS 3 Zrotation Yrotation Xrotation
					JOINT LeftArm
					{
						OFFSET 0.090977 0.030469 -0.008868
						CHANNELS 3 Zrotation Yrotation Xrotation
						JOINT LeftForeArm
						{
							OFFSET 0.259612 -0.012772 -0.027456
							CHANNELS 3 Zrotation Yrotation Xrotation
							JOINT LeftHand
							{
								OFFSET 0.249234 0.008986 -0.001171
								CHANNELS 3 Zrotation Yrotation Xrotation
								End Site
								{
									OFFSET 0.000000 0.000000 0.000000
								}
							}
						}
					}
				}
				JOINT RightShoulder
				{
					OFFSET -0.081759 0.118833 -0.038615
					CHANNELS 3 Zrotation Yrotation Xrotation
					JOINT RightArm
					{
						OFFSET -0.096012 0.032551 -0.009143
						CHANNELS 3 Zrotation Yrotation Xrotation
						JOINT RightForeArm
						{
							OFFSET -0.253742 -0.013329 -0.021401
							CHANNELS 3 Zrotation Yrotation Xrotation
							JOINT RightHand
							{
								OFFSET -0.255298 0.007772 -0.005559
								CHANNELS 3 Zrotation Yrotation Xrotation
								End Site
								{
									OFFSET 0.000000 0.000000 0.000000
								}
							}
						}
					}
				}
			}
		}
	}
}
MOTION
Frames: 18
Frame Time: 0.050000
0.000000 0.932870 0.000000 0.978245 -1.637530 -1.827925 5.941142 0.182724 4.892088 -2.856652 0.349599 -2.653332 1.527059 5.278465 5.951879 0.000000 0.000000 0.000000 -7.239849 0.042459 3.670239 3.069430 -0.293912 1.633254 -2.958690 -8.238720 2.420803 0.000000 0.000000 0.000000 7.431224 -0.471132 4.403919 -6.440145 2.247453 -21.613781 -1.464524 7.392546 27.081232 8.790242 -3.036356 -22.591508 0.000000 0.000000 0.000000 -20.808872 -8.524926 1.736435 -50.031912 -3.705457 -6.257065 -10.230945 -25.074638 3.186165 0.000000 0.000000 0.000000 28.122640 -4.673006 -2.473825 55.567320 7.043391 -5.209329 6.575206 27.362426 3.241515 0.000000 0.000000 0.000000 
0.000364 0.932253 0.000144 1.009253 -2.128271 -1.498140 6.104538 0.196396 5.275388 -3.111942 0.384074 -3.823522 1.387452 5.032134 6.093075 0.000000 0.000000 0.000000 -7.319226 0.080202 3.189502 3.348547 -0.314476 2.265763 -3.080059 -8.347688 1.878330 0.000000 0.000000 0.000000 7.905038 -0.418052 3.685100 -7.152296 2.413465 -21.941638 -1.659159 7.827860 27.366733 8.800181 -2.904024 -23.261301 0.000000 0.000000 0.000000 -20.035752 -7.679049 1.309820 -50.157487 -3.132657 -6.551819 -10.177803 -24.728376 3.125573 0.000000 0.000000 0.000000 28.463011 -5.522328 -3.015339 56.823862 6.616266 -5.485786 6.396221 27.341301 3.246981 0.000000 0.000000 0.000000 
0.000330 0.932176 -0.000236 1.265894 -1.802767 -1.566925 6.043181 0.151757 4.260970 -3.017992 0.359881 -1.952229 0.976852 3.988687 5.185671 0.000000 0.000000 0.000000 -7.490053 0.073957 3.434560 3.278537 -0.313527 1.876931 -3.446847 -9.318159 2.260656 0.000000 0.000000 0.000000 7.621036 -0.385021 3.465424 -7.054781 2.384564 -22.170452 -1.734423 7.516981 27.922860 8.082147 -2.416882 -23.759061 0.000000 0.000000 0.000000 -20.181813 -7.583017 1.315061 -49.897405 -3.573369 -6.426528 -9.321421 -23.241711 2.765987 0.000000 0.000000 0.000000 28.422551 -5.105482 -2.768688 55.238555 6.333859 -5.611860 7.265966 26.201243 3.222586 0.000000 0.000000 0.000000 
-0.000004 0.932705 -0.000792 1.539447 -1.333284 -1.850968 5.948993 0.154556 4.340252 -3.310526 0.385537 -1.956834 0.668588 3.428562 5.180779 0.000000 0.000000 0.000000 -7.853782 0.070380 3.698110 3.658187 -0.362779 1.899601 -3.947936 -10.513802 2.419501 0.000000 0.000000 0.000000 7.546143 -0.431587 3.984375 -7.246308 2.421353 -22.812028 -1.729483 7.602728 28.627484 8.495218 -2.702755 -23.325038 0.000000 0.000000 0.000000 -20.252261 -7.401373 1.115849 -49.943610 -3.599693 -6.453126 -8.393482 -23.731451 2.626788 0.000000 0.000000 0.000000 28.746660 -5.545763 -2.893081 54.608226 6.926757 -5.457136 7.855539 25.497963 3.273282 0.000000 0.000000 0.000000 
-0.000727 0.933019 -0.001882 1.317082 -0.714243 -2.036303 6.020399 0.107923 3.490934 -2.666136 0.307183 -0.754612 0.767572 3.429260 4.561134 0.000000 0.000000 0.000000 -7.741267 0.031401 4.094435 3.939624 -0.404727 1.639816 -4.141676 -11.043460 2.765288 0.000000 0.000000 0.000000 7.249755 -0.445791 4.243496 -6.564385 2.283101 -22.084618 -2.104941 7.617278 28.085163 8.249868 -2.513051 -23.023849 0.000000 0.000000 0.000000 -20.054799 -6.718994 0.606732 -49.751145 -3.510455 -6.388082 -8.473615 -24.408774 2.691941 0.000000 0.000000 0.000000 28.784452 -5.520694 -2.741014 53.978884 6.781047 -5.474628 8.261370 24.756425 3.231881 0.000000 0.000000 0.000000 
-0.001562 0.933058 -0.003411 0.972559 -0.218593 -1.770381 6.505708 0.048030 2.681831 -2.681194 0.299899 -0.219711 0.684700 3.157924 4.193700 0.000000 0.000000 0.000000 -7.589248 0.028390 3.634796 4.418698 -0.467147 1.894351 -4.332610 -11.604325 3.350889 0.000000 0.000000 0.000000 7.194830 -0.466586 4.379318 -6.757340 2.335048 -22.200042 -1.764264 7.583428 28.321107 8.620637 -2.698279 -23.102539 0.000000 0.000000 0.000000 -20.361411 -6.793790 0.534299 -49.537865 -3.634067 -6.297098 -7.733445 -24.612773 2.544055 0.000000 0.000000 0.000000 28.898816 -5.279974 -2.451298 53.201961 7.276685 -5.300347 8.595710 23.923279 3.161260 0.000000 0.000000 0.000000 
-0.002076 0.933600 -0.005258 0.579433 -0.191886 -1.604698 6.797947 -0.006160 1.393605 -2.269059 0.235303 1.146196 0.643472 2.957305 3.870534 0.000000 0.000000 0.000000 -7.217659 0.018246 3.408475 4.547607 -0.483489 1.864107 -4.087664 -11.036757 3.266189 0.000000 0.000000 0.000000 7.242777 -0.519261 4.820749 -6.824329 2.359087 -22.000435 -1.537355 7.904374 28.180972 8.908401 -2.743257 -23.558892 0.000000 0.000000 0.000000 -20.372929 -6.556801 0.294779 -49.327221 -3.586091 -6.254946 -7.361768 -25.128912 2.497028 0.000000 0.000000 0.000000 29.047409 -5.070570 -2.183654 52.602859 8.117836 -4.960539 8.588214 24.090361 3.188623 0.000000 0.000000 0.000000 
-0.001657 0.933905 -0.007156 0.018268 0.202701 -1.422530 7.248796 -0.061999 0.115390 -2.193949 0.199638 2.744397 0.752765 2.837768 2.969210 0.000000 0.000000 0.000000 -6.645775 -0.006605 3.160173 4.853606 -0.526446 1.945774 -4.170079 -11.209231 3.221791 0.000000 0.000000 0.000000 7.215866 -0.621838 5.741652 -7.136765 2.435333 -22.212086 -0.966832 7.668595 28.309965 8.768310 -2.640069 -23.702009 0.000000 0.000000 0.000000 -20.613491 -6.171273 0.054488 -48.657654 -3.679726 -6.141814 -7.638937 -25.891090 2.634751 0.000000 0.000000 0.000000 29.050824 -4.992312 -2.105981 51.868549 9.102588 -4.565105 9.152799 24.411655 3.354647 0.000000 0.000000 0.000000 
0.000335 0.934049 -0.008717 -0.252181 0.363188 -1.000024 7.046343 -0.120145 -1.585576 -1.669535 0.086622 4.812008 0.816638 2.498994 1.798450 0.000000 0.000000 0.000000 -6.423347 0.014477 2.514677 4.741214 -0.514282 2.046474 -4.113548 -11.037658 3.030218 0.000000 0.000000 0.000000 7.044676 -0.682010 6.301825 -7.245980 2.450515 -22.483461 -0.477697 7.989558 28.727579 8.914460 -2.581717 -24.241077 0.000000 0.000000 0.000000 -20.451916 -5.894612 -0.184930 -48.754844 -3.818934 -6.125674 -7.519711 -25.874643 2.590783 0.000000 0.000000 0.000000 29.038455 -4.444437 -1.542505 50.705885 10.868152 -3.927240 8.872170 25.356037 3.459245 0.000000 0.000000 0.000000 
0.004651 0.933965 -0.009505 -0.614837 0.721731 -0.425096 7.344939 -0.183600 -3.381476 -2.120776 0.109827 7.280180 1.106019 2.558139 0.491942 0.000000 0.000000 0.000000 -6.489515 0.040374 2.028872 4.678487 -0.509932 1.927117 -3.950863 -10.645238 2.945851 0.000000 0.000000 0.000000 7.034925 -0.771284 7.001283 -7.537764 2.495168 -23.047649 0.060620 8.583169 29.114590 8.728571 -2.273705 -24.546674 0.000000 0.000000 0.000000 -19.922600 -5.468097 -0.589925 -48.958666 -3.833242 -6.135956 -7.850840 -25.910755 2.622693 0.000000 0.000000 0.000000 28.474843 -4.460051 -1.198679 50.573482 12.061625 -3.540421 9.120599 26.484960 3.763798 0.000000 0.000000 0.000000 
0.011858 0.933793 -0.008573 -0.819064 0.793210 -0.001961 7.299958 -0.239671 -5.093194 -2.233798 0.091023 9.535200 1.515769 2.783397 -1.039081 0.000000 0.000000 0.000000 -6.670608 0.070448 1.607531 4.290538 -0.461146 2.262443 -3.723154 -10.066709 2.708160 0.000000 0.000000 0.000000 6.916401 -0.857685 7.811929 -7.627750 2.504138 -23.284030 0.267405 9.335089 29.356827 9.223222 -2.337905 -25.208131 0.000000 0.000000 0.000000 -19.858319 -5.036398 -1.041609 -48.638169 -3.384741 -6.230684 -8.250505 -26.325295 2.707893 0.000000 0.000000 0.000000 28.267300 -4.098188 -0.639780 49.874565 13.415340 -3.104198 9.248077 27.427132 3.991491 0.000000 0.000000 0.000000 
0.022250 0.932848 -0.005625 -1.131862 1.528715 0.468613 7.306610 -0.313281 -6.998879 -2.331284 0.048275 12.186553 1.702093 2.743924 -2.033002 0.000000 0.000000 0.000000 -6.786817 0.083415 1.239985 3.744465 -0.394608 2.955877 -3.607906 -9.771677 2.608909 0.000000 0.000000 0.000000 6.533354 -0.897480 8.332195 -7.483551 2.472710 -23.265203 0.720573 9.699937 29.353243 9.342589 -2.240762 -25.367173 0.000000 0.000000 0.000000 -20.315074 -4.535111 -1.655752 -48.134031 -3.294009 -6.082530 -8.999159 -25.972149 2.783498 0.000000 0.000000 0.000000 27.535599 -4.360108 -0.513957 50.148346 14.264764 -2.783538 8.873710 28.636173 4.194310 0.000000 0.000000 0.000000 
0.035801 0.931718 -0.000481 -1.413133 1.546471 0.947026 6.767497 -0.392744 -8.462654 -2.066624 -0.052736 14.237604 2.288254 3.669465 -2.915377 0.000000 0.000000 0.000000 -7.164038 0.127534 0.602911 3.249293 -0.315595 4.161917 -3.345363 -8.896863 1.572563 0.000000 0.000000 0.000000 6.157908 -0.943747 9.009977 -7.495181 2.460262 -23.452835 1.120779 9.837286 29.518759 9.406774 -2.217216 -25.607139 0.000000 0.000000 0.000000 -20.531440 -3.844811 -2.115831 -47.980501 -3.580165 -5.944269 -9.624957 -25.428607 2.856457 0.000000 0.000000 0.000000 27.404964 -4.176942 -0.319142 50.005822 15.083931 -2.493588 8.896843 29.846916 4.455092 0.000000 0.000000 0.000000 
0.052314 0.930277 0.006636 -1.618036 2.514573 1.047531 6.306851 -0.489229 -9.855774 -2.210532 -0.110174 16.687001 2.500197 3.856918 -3.481725 0.000000 0.000000 0.000000 -7.595477 0.118798 0.630189 2.606024 -0.212137 5.517324 -3.433075 -8.855631 0.538154 0.000000 0.000000 0.000000 5.975964 -1.059304 10.230331 -7.766662 2.503520 -24.029833 1.387837 9.227686 29.705521 9.292375 -2.216573 -25.269474 0.000000 0.000000 0.000000 -20.972702 -3.392931 -2.453982 -47.484725 -3.400957 -5.927834 -10.765774 -25.790365 3.148588 0.000000 0.000000 0.000000 27.143858 -4.383500 -0.433742 50.405280 14.990240 -2.534294 9.179828 31.006929 4.801337 0.000000 0.000000 0.000000 
0.070582 0.929838 0.015451 -1.755298 2.553219 1.351462 5.759527 -0.550615 -10.350335 -2.678102 -0.018679 17.898923 2.879048 4.620071 -3.712792 0.000000 0.000000 0.000000 -8.489861 0.169663 -0.296187 2.736426 -0.206358 8.000426 -3.684234 -9.393440 0.204246 0.000000 0.000000 0.000000 5.446445 -1.075110 10.907319 -7.611125 2.463274 -24.024696 1.286509 8.933088 29.538392 9.506697 -2.406309 -25.193653 0.000000 0.000000 0.000000 -20.768237 -2.895095 -2.609644 -47.691996 -3.636179 -5.888549 -11.577048 -25.969207 3.368034 0.000000 0.000000 0.000000 26.939982 -4.344824 -0.494378 50.886654 14.764493 -2.574188 8.641078 31.759904 4.820171 0.000000 0.000000 0.000000 
0.089316 0.930400 0.025720 -1.550561 3.792026 1.600766 4.894671 -0.641220 -10.551274 -2.815472 -0.062122 18.759080 2.502797 3.581561 -3.959813 0.000000 0.000000 0.000000 -8.908244 0.179231 -1.507437 1.521277 0.069571 12.107546 -4.016408 -10.229682 0.144238 0.000000 0.000000 0.000000 4.912899 -1.121088 11.860321 -8.163056 2.556267 -24.866247 1.304317 7.514397 29.811352 9.542086 -2.425237 -25.966032 0.000000 0.000000 0.000000 -20.432582 -2.772929 -2.410407 -47.656556 -4.229404 -5.757799 -13.894830 -27.352995 4.149602 0.000000 0.000000 0.000000 26.802278 -5.115889 -1.214897 51.788584 13.543634 -3.013059 9.135622 32.725450 5.182533 0.000000 0.000000 0.000000 
0.107722 0.931238 0.037273 -1.388341 4.330663 1.432501 4.141514 -0.650736 -9.796018 -3.587044 0.108003 19.128708 2.656942 3.553241 -4.693830 0.000000 0.000000 0.000000 -8.810752 0.220071 -3.995418 0.169997 0.525405 19.288196 -4.671065 -11.944969 0.813717 0.000000 0.000000 0.000000 4.229433 -1.127930 12.824641 -7.795161 2.493232 -24.608042 0.500208 7.187193 29.312925 10.074815 -2.805679 -25.604419 0.000000 0.000000 0.000000 -20.151239 -2.638476 -2.446333 -46.977737 -5.778312 -5.061585 -15.819728 -29.069849 4.886875 0.000000 0.000000 0.000000 26.908915 -5.541018 -1.494484 53.272201 12.000466 -3.605270 9.069260 33.893617 5.477232 0.000000 0.000000 0.000000 
0.124881 0.930924 0.049679 -1.514376 7.508684 0.590256 4.021783 -0.676113 -9.674627 -4.061115 -0.023827 21.694442 2.370693 2.181393 -5.550868 0.000000 0.000000 0.000000 -7.685737 0.254694 -7.106402 -0.676533 0.691275 31.217044 -4.823599 -12.607319 3.856897 0.000000 0.000000 0.000000 4.179398 -1.306394 14.328521 -7.758927 2.547119 -24.212900 0.070227 4.859404 29.441105 10.381690 -3.204186 -25.083427 0.000000 0.000000 0.000000 -20.067996 -4.697613 -1.191634 -46.232859 -8.708184 -3.973141 -17.132705 -32.656658 5.930214 0.000000 0.000000 0.000000 27.172798 -6.909778 -2.541735 52.979627 10.564412 -4.226471 12.351677 34.182921 6.558819 0.000000 0.000000 0.000000 
